<?xml version="1.0" encoding="UTF-8" standalone="no"?>
<!DOCTYPE svg PUBLIC "-//W3C//DTD SVG 20010904//EN"
              "http://www.w3.org/TR/2001/REC-SVG-20010904/DTD/svg10.dtd">

<svg xmlns="http://www.w3.org/2000/svg"
     width="2.34408in" height="2.34408in"
     viewBox="0 0 225 225">
  <path id="Seleção"
        fill="none" stroke="black" stroke-width="1"
        d="M 115.00,0.21
           C 127.78,0.06 143.13,3.50 155.00,8.20
             167.41,13.12 178.12,19.97 187.99,28.95
             235.48,72.16 237.61,145.91 192.58,191.72
             183.43,201.02 173.73,208.03 162.00,213.74
             145.52,221.78 127.25,225.21 109.00,225.00
             99.67,224.89 85.90,222.26 77.00,219.33
             12.95,198.25 -17.57,125.84 10.31,65.00
             23.76,35.64 49.98,13.28 81.00,4.43
             89.16,2.10 94.82,1.61 103.00,0.21
             103.00,0.21 115.00,0.21 115.00,0.21 Z
           M 67.00,21.97
           C 42.11,34.42 23.15,57.28 15.58,84.00
             13.64,90.86 12.03,97.85 12.00,105.00
             11.90,125.80 12.35,137.50 21.49,157.00
             33.57,182.78 57.84,202.09 85.00,209.71
             90.93,211.37 97.85,212.92 104.00,213.00
             124.39,213.23 140.36,212.39 159.00,202.51
             177.54,192.68 193.66,176.86 203.03,158.00
             221.76,120.31 214.65,71.96 185.00,42.00
             177.08,34.00 168.11,27.02 158.00,21.97
             139.81,12.88 119.07,10.39 99.00,12.29
             88.16,14.08 76.87,17.04 67.00,21.97 Z
           M 173.00,88.63
           C 173.00,88.63 205.00,113.00 205.00,113.00
             205.00,113.00 138.00,162.15 138.00,162.15
             138.00,162.15 112.00,181.00 112.00,181.00
             112.00,181.00 49.00,134.15 49.00,134.15
             49.00,134.15 20.00,112.00 20.00,112.00
             20.00,112.00 80.00,67.88 80.00,67.88
             80.00,67.88 112.00,44.00 112.00,44.00
             112.00,44.00 173.00,88.63 173.00,88.63 Z
           M 135.00,79.79
           C 115.59,65.95 82.98,74.09 76.00,98.00
             100.27,91.57 137.32,99.85 151.00,121.81
             152.25,103.88 150.64,90.93 135.00,79.79 Z
           M 75.03,125.00
           C 81.79,146.24 104.20,156.59 125.00,149.97
             130.51,148.22 142.21,141.82 143.66,136.00
             144.89,131.12 132.78,122.60 129.00,120.23
             124.15,117.18 119.47,114.77 114.00,113.03
             104.15,109.90 99.08,109.89 89.00,110.00
             82.83,110.08 79.88,111.21 74.00,112.00
             74.00,112.00 74.00,112.04 74.00,112.04
             73.49,117.96 73.28,119.52 75.03,125.00 Z" />
</svg>
